<?xml version="1.0" encoding="UTF-8"?>
<svg version="1.1" xmlns="http://www.w3.org/2000/svg" width="188" height="75">
<path d="M0 0 C0.495 0.99 0.495 0.99 1 2 C-1.97 2.99 -4.94 3.98 -8 5 C-7.20335938 4.89300781 -6.40671875 4.78601563 -5.5859375 4.67578125 C4.93848858 3.48506151 4.93848858 3.48506151 10 7 C9.67 7.66 9.34 8.32 9 9 C8.34 8.67 7.68 8.34 7 8 C1.69433115 7.63633114 -2.03597813 8.51513175 -6.9375 10.5 C-12.37477742 12.55125769 -16.2449288 13.53287696 -22 13 C-23.32 13 -24.64 13 -26 13 C-23.9440983 14.21428985 -23.9440983 14.21428985 -21.125 14 C-18 14 -18 14 -15.9375 14.5625 C-13.91013541 15.1585165 -13.91013541 15.1585165 -11.5 14.5 C-9 14 -9 14 -7.0625 14.5 C-4.20100152 15.1936966 -1.86612318 14.5488321 1 14 C1.99 14 2.98 14 4 14 C4 13.01 4 12.02 4 11 C5.65 10.67 7.3 10.34 9 10 C9 11.32 9 12.64 9 14 C9.66 14 10.32 14 11 14 C11 15.32 11 16.64 11 18 C10.34 18 9.68 18 9 18 C9.66264086 24.06264222 9.66264086 24.06264222 11 30 C10.01 30.33 9.02 30.66 8 31 C7.01 30.34 6.02 29.68 5 29 C3.35 29.33 1.7 29.66 0 30 C0 26.37 0 22.74 0 19 C-0.99 19.33 -1.98 19.66 -3 20 C-3.33 23.3 -3.66 26.6 -4 30 C-5.32 30 -6.64 30 -8 30 C-8 26.37 -8 22.74 -8 19 C-8.99 19.33 -9.98 19.66 -11 20 C-11.33 23.3 -11.66 26.6 -12 30 C-18.33008086 30.79126011 -23.7121347 31.04797755 -30 30 C-30 26.04 -30 22.08 -30 18 C-30.66 18 -31.32 18 -32 18 C-31.67 15.36 -31.34 12.72 -31 10 C-29.9275 9.773125 -28.855 9.54625 -27.75 9.3125 C-23.50103052 7.82536068 -22.67562148 6.45241481 -20 3 C-15.87262511 1.11576364 -12.48775138 0.89800565 -8 1 C-5.29120665 -0.35439668 -2.99066732 -0.06501451 0 0 Z M-23 18 C-23 18.66 -23 19.32 -23 20 C-20.69 20.33 -18.38 20.66 -16 21 C-16 20.34 -16 19.68 -16 19 C-18.31 18.67 -20.62 18.34 -23 18 Z M-26 23 C-24.18777466 25.0624994 -24.18777466 25.0624994 -22 27 C-21.01 27 -20.02 27 -19 27 C-19.33 26.01 -19.66 25.02 -20 24 C-22.97 23.505 -22.97 23.505 -26 23 Z " fill="#FCFDFD" transform="translate(46,17)"/>
<path d="M0 0 C0.99 0 1.98 0 3 0 C3 0.99 3 1.98 3 3 C8.61 3 14.22 3 20 3 C20.33 2.01 20.66 1.02 21 0 C21.66 0.309375 22.32 0.61875 23 0.9375 C28.18472868 2.77375808 33.51549073 3.17139091 39 3 C39.33 2.01 39.66 1.02 40 0 C40.99 0 41.98 0 43 0 C42.67 2.97 42.34 5.94 42 9 C41.01 9 40.02 9 39 9 C39 11.97 39 14.94 39 18 C22.5 18 6 18 -11 18 C-11.92538169 14.29847322 -12.08174162 13.36541838 -11 10 C-9.35 10 -7.7 10 -6 10 C-6 10.66 -6 11.32 -6 12 C-1.38 12 3.24 12 8 12 C8 10.68 8 9.36 8 8 C6.96939453 8.24169922 6.96939453 8.24169922 5.91796875 8.48828125 C2.67193911 9.05753143 -0.39278724 9.168716 -3.6875 9.1875 C-5.39486328 9.20876953 -5.39486328 9.20876953 -7.13671875 9.23046875 C-10 9 -10 9 -12 7 C-12.125 3.875 -12.125 3.875 -12 1 C-9.69 1 -7.38 1 -5 1 C-5 1.66 -5 2.32 -5 3 C-3.35 3 -1.7 3 0 3 C0 2.01 0 1.02 0 0 Z M32 4 C31.3503125 5.4540625 31.3503125 5.4540625 30.6875 6.9375 C29 10 29 10 26 11 C26 10.34 26 9.68 26 9 C24.68 9 23.36 9 22 9 C22 9.99 22 10.98 22 12 C26.62 12 31.24 12 36 12 C36 11.01 36 10.02 36 9 C35.34 8.67 34.68 8.34 34 8 C32.875 5.9375 32.875 5.9375 32 4 Z M26 6 C27 9 27 9 27 9 Z M16 6 C15.67 6.66 15.34 7.32 15 8 C12.4375 8.625 12.4375 8.625 10 9 C10.33 9.99 10.66 10.98 11 12 C13.64 12 16.28 12 19 12 C19 11.01 19 10.02 19 9 C18.34 9 17.68 9 17 9 C16.67 8.01 16.34 7.02 16 6 Z " fill="#FBFCFD" transform="translate(130,33)"/>
<path d="M0 0 C2 3 2 3 3 6 C3.33 5.34 3.66 4.68 4 4 C4.66 4 5.32 4 6 4 C6 5.65 6 7.3 6 9 C6.99 8.34 7.98 7.68 9 7 C8.67 8.65 8.34 10.3 8 12 C9.32 11.67 10.64 11.34 12 11 C10.56759312 14.32997682 8.81763476 16.3992896 6.125 18.8125 C5.44695312 19.43769531 4.76890625 20.06289063 4.0703125 20.70703125 C2 22 2 22 0.0390625 21.9453125 C-2.64880095 20.69921489 -4.55373605 19.04703262 -6.75 17.0625 C-7.54921875 16.35222656 -8.3484375 15.64195313 -9.171875 14.91015625 C-11 13 -11 13 -11 11 C-9.68 11.33 -8.36 11.66 -7 12 C-7.33 10.35 -7.66 8.7 -8 7 C-7.01 7.33 -6.02 7.66 -5 8 C-5 6.68 -5 5.36 -5 4 C-4.34 4 -3.68 4 -3 4 C-2.67 4.66 -2.34 5.32 -2 6 C-1.34 4.02 -0.68 2.04 0 0 Z " fill="#FCFDFE" transform="translate(102,23)"/>
<path d="M0 0 C1.65 0 3.3 0 5 0 C5.33 0.99 5.66 1.98 6 3 C6.598125 2.814375 7.19625 2.62875 7.8125 2.4375 C10 2 10 2 13 3 C13.99 2.67 14.98 2.34 16 2 C16.639375 2.165 17.27875 2.33 17.9375 2.5 C20.01056914 3.18720188 20.01056914 3.18720188 22.0625 2.375 C24 2 24 2 25.8125 3.125 C27 5 27 5 26.6875 7.6875 C26.460625 8.450625 26.23375 9.21375 26 10 C24.34385343 10.38218767 22.67542976 10.71395102 21 11 C20.67 10.67 20.34 10.34 20 10 C19.67 10.99 19.34 11.98 19 13 C17.35 13.33 15.7 13.66 14 14 C13.34 13.01 12.68 12.02 12 11 C11.67 11 11.34 11 11 11 C7.33333333 11 3.66666667 11 0 11 C0 7.37 0 3.74 0 0 Z M15 5 C14.67 5.66 14.34 6.32 14 7 C14.33 7.66 14.66 8.32 15 9 C15.66 9 16.32 9 17 9 C17 7.68 17 6.36 17 5 C16.34 5 15.68 5 15 5 Z " fill="#FCFDFD" transform="translate(31,48)"/>
<path d="M0 0 C0.7425 0.309375 1.485 0.61875 2.25 0.9375 C3.1575 1.288125 4.065 1.63875 5 2 C5.680625 2.268125 6.36125 2.53625 7.0625 2.8125 C9.16953901 3.21753136 9.16953901 3.21753136 11.25 1.5625 C11.8275 1.046875 12.405 0.53125 13 0 C16.47899158 1.39159663 17.48052501 2.63251488 19 6 C17.4324482 7.7021698 15.84540216 9.38640554 14.25 11.0625 C12.92742187 12.47208984 12.92742187 12.47208984 11.578125 13.91015625 C9 16 9 16 6.96875 16.09375 C4.26098538 14.58943632 2.38973459 12.67163464 0.25 10.4375 C-0.94882813 9.19806641 -0.94882813 9.19806641 -2.171875 7.93359375 C-2.77515625 7.29550781 -3.3784375 6.65742187 -4 6 C-2.84826645 3.53199953 -1.95216435 1.95216435 0 0 Z " fill="#FCFDFD" transform="translate(95,45)"/>
<path d="M0 0 C0.56388428 0.16822266 1.12776855 0.33644531 1.70874023 0.50976562 C4.16444094 1.03518353 6.15866359 1.01147606 8.66015625 0.84375 C9.9740332 0.76447266 9.9740332 0.76447266 11.31445312 0.68359375 C12.22130859 0.62300781 13.12816406 0.56242187 14.0625 0.5 C15.86553659 0.38005277 17.66892444 0.26524485 19.47265625 0.15625 C20.66773804 0.07600586 20.66773804 0.07600586 21.88696289 -0.00585938 C24 0 24 0 27 1 C29.0329115 0.86980581 29.0329115 0.86980581 31.125 0.5 C33.043125 0.2525 33.043125 0.2525 35 0 C36 1 36 1 36.0625 3.5625 C36.041875 4.366875 36.02125 5.17125 36 6 C35.30132812 5.98839844 34.60265625 5.97679687 33.8828125 5.96484375 C32.97273438 5.95582031 32.06265625 5.94679688 31.125 5.9375 C30.22007812 5.92589844 29.31515625 5.91429687 28.3828125 5.90234375 C25.9831415 5.83750743 25.9831415 5.83750743 24 7 C22.52585745 7.09539628 21.04753706 7.13073483 19.5703125 7.1328125 C18.25353516 7.13474609 18.25353516 7.13474609 16.91015625 7.13671875 C15.99105469 7.13285156 15.07195312 7.12898438 14.125 7.125 C12.75794922 7.13080078 12.75794922 7.13080078 11.36328125 7.13671875 C10.48285156 7.13542969 9.60242188 7.13414063 8.6953125 7.1328125 C7.89109863 7.13168457 7.08688477 7.13055664 6.25830078 7.12939453 C4.04840365 7.0027734 2.12220865 6.61146326 0 6 C0 4.02 0 2.04 0 0 Z " fill="#F9FBFD" transform="translate(119,25)"/>
<path d="M0 0 C3.05315638 0.37233614 3.47329881 1.22329881 5.5625 3.3125 C7.61646726 2.90320014 7.61646726 2.90320014 9.5625 2.3125 C11.5625 4.3125 11.5625 4.3125 11.75 7.375 C11.5625 10.3125 11.5625 10.3125 10.5625 11.3125 C8.89632885 11.35313832 7.22861905 11.355221 5.5625 11.3125 C5.5625 10.6525 5.5625 9.9925 5.5625 9.3125 C4.5725 9.9725 3.5825 10.6325 2.5625 11.3125 C0 11.5625 0 11.5625 -2.4375 11.3125 C-4.4375 9.3125 -4.4375 9.3125 -4.6875 5.8125 C-4.40166115 1.81075612 -4.09542045 0.5250539 0 0 Z M-1.4375 2.3125 C-2.43967064 5.89577753 -2.43967064 5.89577753 -1.4375 9.3125 C1.53767573 9.62833648 1.53767573 9.62833648 3.25 7.9375 C4.7719457 6.40132742 4.7719457 6.40132742 4.5625 4.3125 C1.74740007 2.0351499 1.74740007 2.0351499 -1.4375 2.3125 Z M7.5625 5.3125 C7.5625 6.6325 7.5625 7.9525 7.5625 9.3125 C8.2225 8.9825 8.8825 8.6525 9.5625 8.3125 C9.5625 7.3225 9.5625 6.3325 9.5625 5.3125 C8.9025 5.3125 8.2425 5.3125 7.5625 5.3125 Z " fill="#FCFCFD" transform="translate(18.4375,47.6875)"/>
<path d="M0 0 C1.65 0 3.3 0 5 0 C5 0.99 5 1.98 5 3 C3.35 2.67 1.7 2.34 0 2 C0 1.34 0 0.68 0 0 Z " fill="#FBFDFD" transform="translate(56,28)"/>
</svg>
